<svg width="24" height="24" viewBox="0 0 24 24" fill="none" xmlns="http://www.w3.org/2000/svg">
<rect width="24" height="24" rx="12" fill="#1D1C22"/>
<path d="M15.1793 5.11727C14.5755 5.19895 14.1087 5.30979 13.397 5.54607L12.9477 5.69193L13.1636 5.80861C13.2803 5.87278 13.5574 6.02155 13.7762 6.14115L14.1758 6.35409L14.4617 6.29867C14.6192 6.26658 14.9518 6.22574 15.2026 6.20532C15.5993 6.17615 15.7131 6.17615 16.0544 6.21991C17.4867 6.39493 18.3384 7.20295 18.4259 8.46895C18.493 9.39948 18.0117 10.683 17.1454 11.8994C17.0258 12.0686 16.9383 12.2086 16.9528 12.2144C16.9674 12.2203 17.0929 12.2115 17.2329 12.194C17.6909 12.1386 17.8805 12.1503 18.0788 12.2494C18.2655 12.3428 18.3939 12.4799 18.4522 12.6491L18.4872 12.7482L18.7001 12.4215C19.2865 11.5231 19.7386 10.4292 19.9311 9.44907C20.0157 9.0086 20.0245 8.22392 19.9457 7.84178C19.6599 6.41827 18.6826 5.4819 17.1541 5.15519C16.7895 5.07935 15.6343 5.05601 15.1793 5.11727Z" fill="white"/>
<path d="M6.01102 8.94149C5.3051 9.30321 5.2205 9.37322 5.20008 9.60658C5.19133 9.70284 5.203 9.80494 5.22342 9.85744C5.28176 9.99455 5.43636 10.1141 5.58805 10.1375C5.7164 10.155 5.7514 10.1433 6.18896 9.92745L6.65277 9.69992V9.16611C6.65277 8.87148 6.64402 8.63229 6.63235 8.63229C6.61776 8.63229 6.34065 8.77231 6.01102 8.94149Z" fill="white"/>
<path d="M6.87156 10.3067C5.78934 10.8638 5.76308 10.8842 5.7835 11.1789C5.79225 11.2839 5.81851 11.3743 5.85351 11.4268C5.92644 11.526 6.13938 11.6368 6.2619 11.6368C6.32024 11.6368 6.65861 11.4822 7.25369 11.1789C7.74959 10.928 8.19298 10.6976 8.23965 10.6655C8.28632 10.6334 8.34758 10.5488 8.37967 10.4759C8.5226 10.1521 8.29799 9.82536 7.93044 9.82828C7.82543 9.83119 7.64166 9.91287 6.87156 10.3067Z" fill="white"/>
<path d="M6.97948 12.1503C6.58276 12.3515 6.23563 12.5382 6.20355 12.5645C6.11604 12.6432 6.06936 12.7628 6.06936 12.9058C6.06936 13.1508 6.2298 13.3375 6.469 13.3754C6.60318 13.3958 6.62652 13.3842 7.34703 13.0225C8.20755 12.5878 8.24256 12.5586 8.24256 12.2669C8.24256 12.1269 8.22797 12.0686 8.17255 11.9898C8.09671 11.8819 7.91001 11.7856 7.78167 11.7827C7.73208 11.7827 7.40828 11.9315 6.97948 12.1503Z" fill="white"/>
<path d="M5.10089 12.2552C4.98713 12.3515 4.60791 13.1012 4.38039 13.6846C3.91074 14.8981 3.87282 16.1086 4.28412 16.9838C4.74793 17.9726 5.64055 18.5998 6.93571 18.8477C7.41994 18.9411 8.50216 18.9411 9.12933 18.8477C11.2354 18.5327 13.5953 17.4592 15.5089 15.9482C15.6927 15.8024 15.856 15.6944 15.8677 15.709C15.8794 15.7236 15.9406 15.7994 16.0048 15.8811C16.066 15.9599 16.2148 16.1407 16.3315 16.2808C16.5328 16.5199 16.5532 16.5375 16.6582 16.5375C16.7195 16.5375 16.7953 16.5141 16.8303 16.4849C16.877 16.447 17.0287 16.0007 17.4312 14.7055C17.7288 13.7546 17.9709 12.9582 17.9709 12.932C17.9709 12.9057 17.93 12.8474 17.8804 12.7978C17.7754 12.6928 18.003 12.684 15.9289 12.862C15.1676 12.9262 14.4325 12.9903 14.2983 12.9991C13.9979 13.0224 13.887 13.0924 13.887 13.2645C13.887 13.3579 13.9424 13.4396 14.3217 13.9121C14.5609 14.2097 14.7505 14.4605 14.7446 14.4693C14.7213 14.5101 14.0591 14.9973 13.6682 15.2598C11.7984 16.5258 9.91109 17.2492 8.31547 17.3163C6.47774 17.3921 5.32551 16.5841 5.20591 15.1373C5.16799 14.7026 5.308 13.9705 5.51511 13.5154C5.59679 13.3316 5.59679 13.3258 5.55304 13.2179C5.52095 13.1508 5.50345 13.0312 5.50345 12.8912C5.50636 12.6899 5.53553 12.5761 5.65222 12.3632C5.65805 12.3515 5.60554 12.3165 5.53553 12.2815C5.39552 12.2144 5.1709 12.1998 5.10089 12.2552Z" fill="white"/>
<path d="M11.7435 10.2677C11.7946 10.2677 11.9649 10.1689 13.2898 9.38213C15.3465 8.16311 15.7623 7.90768 15.7353 7.88374C15.72 7.86914 15.1859 7.5526 14.55 7.17856C13.9131 6.80051 13.082 6.31012 12.704 6.08534C12.0944 5.72097 11.839 5.59477 11.7232 5.60497C11.7061 5.60498 11.6381 5.6222 11.5768 5.63922C11.5121 5.65966 11.1066 5.88431 10.6741 6.14315C10.2382 6.40199 9.42404 6.88573 8.86206 7.21951C8.30038 7.55311 7.81348 7.846 7.77901 7.87009C7.72474 7.9042 7.88193 8.00989 9.05635 8.70774C11.0443 9.89571 11.685 10.2672 11.7435 10.2677Z" fill="white"/>
<path d="M12.0467 15.6024C12.4803 15.3704 12.9198 15.1047 13.361 14.806L13.3634 14.8043C13.5395 14.686 13.7772 14.5169 13.9827 14.3665C13.9571 14.3343 13.9307 14.3009 13.9035 14.267L13.8941 14.2552C13.7096 14.0252 13.5844 13.8664 13.5074 13.7518C13.4356 13.645 13.3596 13.5115 13.3425 13.3378L13.3417 13.3308L13.3415 13.3236L13.3393 13.2771L13.339 13.2709V13.2645C13.3391 13.164 13.3552 13.0403 13.4159 12.915C13.4791 12.7844 13.5747 12.685 13.6835 12.615C13.8247 12.5241 13.9856 12.4852 14.125 12.4662L14.2559 12.4525H14.2575L14.2623 12.452C14.3896 12.4437 15.1132 12.3808 15.882 12.316L16.0613 12.3008C16.0617 11.9559 16.0607 11.4982 16.0589 10.8878L16.0487 8.4626L15.2482 8.93253C14.8089 9.19138 13.9065 9.72293 13.2491 10.1146L12.0467 10.8265V15.6024Z" fill="white"/>
<path d="M11.4336 10.8265L11.2907 10.7446C11.2087 10.7002 10.6297 10.3562 10.0032 9.98508C8.14018 8.87817 7.50312 8.50357 7.44181 8.47972C7.40202 8.46243 7.38777 8.53306 7.38293 9.44128C7.39763 9.4345 7.41159 9.42762 7.42522 9.42147C7.57557 9.3537 7.74016 9.28505 7.9155 9.28017H7.92834C8.27994 9.27808 8.60321 9.43725 8.7973 9.71799C8.99318 10.0014 9.02707 10.3667 8.88106 10.6975C8.84657 10.7757 8.80153 10.8491 8.75662 10.9102C8.72232 10.9569 8.66465 11.0289 8.58534 11.0911L8.55002 11.1171C8.50768 11.1462 8.43874 11.1833 8.39507 11.2068C8.33683 11.2381 8.26015 11.2779 8.17214 11.3237C8.20049 11.3361 8.2273 11.349 8.25189 11.362C8.36917 11.4237 8.5155 11.525 8.62067 11.6746C8.67551 11.7525 8.72831 11.8475 8.75956 11.9711L8.77589 12.0516C8.78851 12.1307 8.7906 12.2048 8.79061 12.2668C8.79061 12.3352 8.79175 12.4743 8.74404 12.6187C8.68774 12.7889 8.58479 12.9138 8.4708 13.01C8.36906 13.0958 8.24411 13.1708 8.11434 13.2423C7.98001 13.3162 7.80757 13.4041 7.59435 13.5118L7.57642 13.5209L7.57375 13.5217C7.57096 13.5231 7.56822 13.5245 7.56545 13.5259C7.80073 13.7269 8.45865 14.1119 10.4801 15.2917C10.8273 15.4925 11.1814 15.7035 11.2736 15.7547L11.4336 15.8537V10.8265Z" fill="white"/>
</svg>
