<svg width="24" height="24" viewBox="0 0 24 24" fill="none" xmlns="http://www.w3.org/2000/svg">
<rect width="24" height="24" rx="12" fill="#1D1C22"/>
<path d="M9.8015 4.01391C9.68257 4.05938 9.67558 4.17482 9.76652 4.59108C9.8155 4.80096 9.88196 5.10528 9.91694 5.26619C9.9904 5.62648 10.0848 5.75941 10.2248 5.70694C10.3612 5.65447 11.1902 4.75898 11.1902 4.66104C11.1902 4.52811 11.1167 4.47564 10.648 4.28675C9.87846 3.97893 9.88546 3.98243 9.8015 4.01391Z" fill="white"/>
<path d="M12.1487 4.30775L12.0332 5.56353C11.9213 6.80531 11.9213 6.8228 11.9877 6.91025C12.0822 7.03968 12.1941 7.08865 12.4145 7.08865C12.6559 7.08865 12.7643 7.11664 12.7643 7.1796C12.7643 7.20758 12.7713 7.22857 12.7783 7.22857C12.7958 7.22857 13.6878 7.46294 13.7822 7.49442C13.8277 7.50491 13.8487 7.47693 13.8732 7.37898C13.8941 7.29503 13.9256 7.24956 13.9571 7.25306C13.9851 7.25655 14.1985 7.27754 14.4293 7.29853C14.9191 7.3475 15.0345 7.31602 15.1045 7.12013L15.2968 5.47958C15.3913 4.52113 15.3843 4.46866 15.1674 4.38121C15.073 4.34273 13.366 4.14684 12.6174 4.09088C12.3329 4.06961 12.1701 4.07484 12.1487 4.30775Z" fill="white"/>
<path d="M8.70662 5.03533C8.2274 5.23821 8.16443 5.28018 8.15394 5.40261C8.12945 5.64398 8.27287 5.68595 8.59119 5.53554C8.72411 5.47257 8.88852 5.40261 8.96197 5.37813C9.13687 5.31866 9.19284 5.18924 9.0984 5.06331C9.01095 4.94438 8.93749 4.93738 8.70662 5.03533Z" fill="white"/>
<path d="M7.12904 5.93782C6.78973 6.18268 6.60784 6.35758 6.60784 6.44503C6.60784 6.54647 6.71977 6.6689 6.81422 6.6689C6.89817 6.6689 7.50682 6.19667 7.5348 6.10922C7.55929 6.02877 7.50332 5.91333 7.41237 5.86436C7.31793 5.81189 7.30044 5.81889 7.12904 5.93782Z" fill="white"/>
<path d="M17.609 6.35057C17.4971 6.39954 17.4586 6.45551 16.7345 7.59585C16.0524 8.68023 16.0489 8.68023 16.1294 8.7327C16.1713 8.76068 16.4022 8.92159 16.6366 9.08949C16.8744 9.2574 17.1018 9.41481 17.1403 9.4358C17.2277 9.48127 17.2067 9.50925 17.651 8.80266C17.8364 8.50533 18.1512 8.00862 18.3506 7.70429C18.55 7.39997 18.7109 7.12013 18.7109 7.08165C18.7109 6.89975 18.6164 6.79132 18.2561 6.57094C17.8993 6.34707 17.7384 6.2946 17.609 6.35057Z" fill="white"/>
<path d="M5.81379 7.20057C5.77531 7.24605 5.65987 7.38947 5.56193 7.52239C5.34156 7.81972 5.33106 7.93165 5.51296 8.0261C5.63539 8.09256 5.71234 8.03309 5.97469 7.6833C6.22305 7.35099 6.24404 7.29152 6.14609 7.16559C6.08663 7.09563 5.89424 7.11662 5.81379 7.20057Z" fill="white"/>
<path d="M12.1312 7.66581C12.2991 7.80923 12.4215 8.10306 12.4425 8.39689C12.4565 8.62076 12.446 8.68023 12.362 8.86212C12.1801 9.27139 11.8408 9.49526 11.2881 9.57221C11.0573 9.6037 10.9803 9.62818 10.9803 9.66666C10.9803 9.71563 10.8789 10.0864 10.4906 11.4786C10.2912 12.2027 10.2772 12.3741 10.4032 12.64C10.5431 12.9443 10.606 12.9723 12.2536 13.4025C13.4989 13.7243 13.7193 13.7733 13.7577 13.7313C13.7822 13.7033 13.9431 13.455 14.111 13.1751C14.2824 12.8953 14.4433 12.6365 14.4678 12.5945C14.5133 12.5245 14.5028 12.5175 14.0166 12.3916C13.7402 12.3216 13.1491 12.1642 12.7013 12.0488L11.8863 11.8354L11.9073 11.7445C11.9178 11.6955 11.9423 11.5976 11.9633 11.5276L11.9947 11.4017L12.7818 11.6115C13.2155 11.727 13.5793 11.8144 13.5898 11.8039C13.6003 11.7899 13.7822 11.1323 13.9956 10.3348C14.4223 8.7362 14.4433 8.60327 14.3034 8.35142C14.139 8.06108 14.0376 8.00861 13.1771 7.78474C12.7048 7.65882 12.3236 7.57836 12.2116 7.57836H12.0227L12.1312 7.66581Z" fill="white"/>
<path d="M10.3157 7.86521C9.86446 7.92468 9.48668 7.97715 9.47969 7.98064C9.47619 7.98764 9.56713 8.28497 9.68607 8.64176C9.89595 9.2714 9.90644 9.29239 9.99389 9.29239C10.0464 9.29239 10.4206 9.24692 10.8299 9.19095C11.4141 9.11399 11.596 9.07551 11.6939 9.01605C12.1591 8.72571 12.1032 8.0506 11.5925 7.81974C11.4106 7.73578 11.2951 7.73928 10.3157 7.86521Z" fill="white"/>
<path d="M8.90951 8.07159C8.7486 8.11357 8.5772 8.2395 8.46177 8.38991C8.33584 8.56481 8.33234 8.61378 8.43728 8.64876C8.47926 8.66275 8.69963 8.7537 8.927 8.85514C9.15087 8.95658 9.33626 9.03004 9.33626 9.01605C9.33626 8.98807 9.02494 8.0611 9.01445 8.05061C9.00745 8.04711 8.96198 8.0541 8.90951 8.07159Z" fill="white"/>
<path d="M14.7756 8.37591C14.7896 8.41089 14.8141 8.51234 14.8316 8.61028C14.8631 8.76419 14.8526 8.84115 14.7442 9.25741C14.6777 9.51626 14.6252 9.72964 14.6287 9.73313C14.6322 9.73663 14.8666 9.81708 15.1534 9.91503L15.6676 10.0969L15.6641 9.64918C15.6606 9.40432 15.6501 9.06502 15.6361 8.89362L15.6152 8.58579L15.1849 8.45287C14.8281 8.34443 14.7582 8.33044 14.7756 8.37591Z" fill="white"/>
<path d="M4.90431 8.65575C4.84485 8.69423 4.579 9.2714 4.55451 9.41831C4.52303 9.6107 4.69793 9.74362 4.85184 9.64568C4.91481 9.6072 5.20864 8.9146 5.20864 8.81316C5.20864 8.68723 5.01625 8.58579 4.90431 8.65575Z" fill="white"/>
<path d="M18.8088 8.72221C18.7808 8.75719 18.7458 8.80267 18.7354 8.82365C18.7039 8.87962 19.0432 9.6177 19.1271 9.67366C19.2216 9.73663 19.358 9.68066 19.414 9.56173C19.4454 9.49177 19.428 9.42531 19.295 9.13497C19.2076 8.94608 19.1096 8.76069 19.0817 8.72571C19.0117 8.64526 18.8788 8.64526 18.8088 8.72221Z" fill="white"/>
<path d="M8.11196 9.04403C8.11196 9.06152 7.8671 9.6177 7.56628 10.2788C7.0101 11.5031 6.96812 11.629 7.07306 11.7865C7.12903 11.8704 7.8811 12.2307 8.00353 12.2307C8.23789 12.2307 8.25888 12.1887 9.10189 10.3068C9.14037 10.2194 9.23132 10.02 9.30478 9.85906C9.4377 9.56873 9.4377 9.56873 9.36075 9.54075C9.31877 9.52326 9.04243 9.39733 8.7451 9.26091C8.21341 9.01605 8.11196 8.98107 8.11196 9.04403Z" fill="white"/>
<path d="M16.0874 9.72264V10.1949L16.1748 10.2159C16.3043 10.2473 16.5666 10.1774 16.7345 10.0619C16.9234 9.93252 16.9549 9.85906 16.8499 9.7856C16.808 9.75412 16.6191 9.62119 16.4302 9.49177L16.0874 9.25391V9.72264Z" fill="white"/>
<path d="M4.28517 10.4222C4.2432 10.4537 4.20472 10.5796 4.15925 10.849C4.12077 11.0623 4.08929 11.2617 4.08929 11.2932C4.08929 11.4436 4.34114 11.5206 4.44608 11.3982C4.49505 11.3422 4.61399 10.765 4.61399 10.5796C4.61399 10.4152 4.4216 10.3208 4.28517 10.4222Z" fill="white"/>
<path d="M19.4315 10.4677C19.4 10.4957 19.3755 10.5516 19.3755 10.5901C19.3755 10.772 19.4979 11.3807 19.5434 11.4331C19.6099 11.5101 19.7218 11.5136 19.8267 11.4401C19.9002 11.3877 19.9037 11.3667 19.8827 11.1848C19.8372 10.814 19.7603 10.4992 19.7008 10.4537C19.6204 10.3942 19.4979 10.4012 19.4315 10.4677Z" fill="white"/>
<path d="M4.10677 12.3007C4.05081 12.3601 4.04731 12.4126 4.0683 12.7414C4.09978 13.1752 4.12776 13.2661 4.2432 13.3221C4.31316 13.3536 4.34814 13.3501 4.42159 13.3011C4.52303 13.2346 4.52653 13.1822 4.47406 12.6505C4.44958 12.4021 4.42859 12.3077 4.38312 12.2762C4.29217 12.2097 4.18023 12.2202 4.10677 12.3007Z" fill="white"/>
<path d="M19.6064 12.3182C19.5714 12.3531 19.5504 12.4336 19.5504 12.5315C19.5504 13.1332 19.323 14.242 19.0747 14.8612C18.9277 15.2215 18.6129 15.8301 18.417 16.131C17.8329 17.0264 16.9479 17.8974 16.0559 18.4536C15.7621 18.639 15.1044 18.9818 15.045 18.9818C15.0275 18.9818 14.9715 19.0133 14.919 19.0553C14.7966 19.1532 14.7966 19.3071 14.919 19.3876C15.003 19.4436 15.017 19.4436 15.2758 19.3316C17.3781 18.4256 19.0852 16.4773 19.6938 14.291C19.8652 13.6754 19.9981 12.5455 19.9212 12.3706C19.8722 12.2622 19.6938 12.2342 19.6064 12.3182Z" fill="white"/>
<path d="M14.7022 13.0597C14.5728 13.2696 14.4433 13.4725 14.4153 13.5145L14.3664 13.5949H14.8946H15.4228V13.4445C15.4228 13.1926 15.1289 12.6854 14.982 12.6854C14.9575 12.6854 14.8316 12.8533 14.7022 13.0597Z" fill="white"/>
<path d="M7.97205 13.5424V13.7348H8.86404H9.75603V13.5424V13.3501H8.86404H7.97205V13.5424Z" fill="white"/>
<path d="M10.5955 13.9167C10.5955 14.1931 10.606 14.4729 10.6165 14.5394L10.6375 14.6618L11.3056 14.8297C11.6764 14.9207 11.9877 14.9941 12.0052 14.9941C12.0367 14.9941 12.0332 13.9937 11.9982 13.8748C11.9772 13.7978 11.9213 13.7768 11.3651 13.6299C11.0293 13.5389 10.718 13.455 10.676 13.441L10.5955 13.4165V13.9167Z" fill="white"/>
<path d="M4.44608 14.1056C4.39711 14.1406 4.36913 14.1931 4.36913 14.2595C4.36913 14.4134 4.59999 15.0011 4.68744 15.0746C4.80288 15.169 4.99876 15.0851 5.00576 14.9381C5.00576 14.8192 4.7539 14.1756 4.68045 14.1091C4.5895 14.0357 4.54752 14.0357 4.44608 14.1056Z" fill="white"/>
<path d="M14.0516 15.4558C14.0586 16.841 14.0586 16.8655 14.132 16.925C14.1985 16.9809 14.3104 16.9879 15.3178 16.9879C16.3742 16.9879 16.4302 16.9844 16.4897 16.918C16.5596 16.841 16.5701 16.6976 16.5106 16.6242C16.4897 16.5997 16.2448 16.4318 15.965 16.2569L15.4577 15.9351V14.9906V14.0496H14.7512H14.0411L14.0516 15.4558Z" fill="white"/>
<path d="M6.81072 14.7143L6.80023 14.9241H7.52781H8.25189V14.7143V14.5044H7.5383H6.82471L6.81072 14.7143Z" fill="white"/>
<path d="M9.98339 15.1025C8.35683 15.7846 7.64674 16.103 7.61875 16.1554C7.57328 16.2394 8.4058 18.3032 8.50375 18.3557C8.61218 18.4151 8.73811 18.3627 8.79408 18.2367C8.81856 18.1773 8.89202 17.8799 8.95149 17.5826C9.01445 17.2853 9.06692 17.0369 9.06692 17.0334C9.07042 17.0299 9.4587 16.869 9.93092 16.6696C10.4032 16.4737 10.7984 16.3023 10.8159 16.2883C10.8474 16.2604 10.3087 15.0186 10.2632 15.0081C10.2422 15.0046 10.1198 15.0466 9.98339 15.1025Z" fill="white"/>
<path d="M11.0433 15.6307C11.1517 15.8756 11.2532 16.0785 11.2742 16.0785C11.2951 16.0785 11.3966 16.0295 11.498 15.97C11.6869 15.8616 11.9038 15.5923 11.8828 15.4873C11.8758 15.4523 11.7044 15.3929 11.3616 15.3089L10.8509 15.1795L11.0433 15.6307Z" fill="white"/>
<path d="M4.82386 15.8686V16.0785H5.17366H5.52346V15.8686V15.6587H5.17366H4.82386V15.8686Z" fill="white"/>
<path d="M6.1531 15.8686V16.0785H6.69529H7.23748V15.8721V15.6657L6.69529 15.6622L6.1531 15.6552V15.8686Z" fill="white"/>
<path d="M5.59342 17.2678V17.4777H6.34549H7.09756V17.2678V17.0579H6.34549H5.59342V17.2678Z" fill="white"/>
<path d="M10.641 18.6145C10.3262 18.7579 10.1618 19.1077 10.2457 19.4435C10.3612 19.9018 10.8824 20.1361 11.2986 19.9158C11.7394 19.6814 11.8093 19.0622 11.4351 18.7229C11.2042 18.5131 10.9349 18.4746 10.641 18.6145Z" fill="white"/>
<path d="M12.9252 18.5795C12.5229 18.7229 12.334 19.2197 12.5334 19.6114C12.7398 20.0207 13.31 20.1291 13.6458 19.8283C13.9116 19.5869 13.9886 19.2546 13.8452 18.9573C13.6773 18.611 13.289 18.4501 12.9252 18.5795Z" fill="white"/>
</svg>
