<svg width="24" height="24" viewBox="0 0 24 24" fill="none" xmlns="http://www.w3.org/2000/svg">
<rect width="24" height="24" rx="12" fill="#1D1C22"/>
<path d="M10.1774 4.81364C10.1116 4.88283 10.077 4.95203 10.077 5.02123C10.077 5.08004 10.2397 5.47101 10.4749 5.96577C10.6929 6.42939 10.8728 6.77537 10.8728 6.73731C10.8728 6.69925 10.8417 6.27023 10.7967 5.78585C10.724 4.91743 10.7206 4.90359 10.6272 4.80672C10.4957 4.67524 10.3158 4.6787 10.1774 4.81364Z" fill="white"/>
<path d="M12.2914 4.81711C12.2914 4.86555 12.2291 5.32225 12.153 5.83777C12.0734 6.34982 11.9557 7.13867 11.89 7.58499C11.8243 8.03131 11.7655 8.40151 11.7585 8.40497C11.7551 8.40843 11.672 8.37383 11.5786 8.3254C11.3399 8.20776 11.0769 8.18354 10.8209 8.2562C10.6652 8.30464 10.5822 8.35653 10.4334 8.50185L10.2466 8.69214L8.61354 7.08677C7.71398 6.20451 6.97703 5.48486 6.97011 5.49178C6.96665 5.49524 7.06352 5.67861 7.19154 5.89312C7.31955 6.11109 7.60326 6.61277 7.82815 7.01411C8.36443 7.97941 8.83843 8.81669 9.15327 9.36681C9.29859 9.61246 9.4093 9.82005 9.40584 9.82351C9.40238 9.83043 9.09791 9.69204 8.73463 9.5225C8.36789 9.34951 8.05996 9.21112 8.04958 9.21112C8.0392 9.21112 8.14646 9.35643 8.28831 9.52942C8.74155 10.1038 8.90762 10.3252 8.89378 10.339C8.88686 10.3459 8.617 10.2422 8.29177 10.1072C7.73128 9.87541 4.72121 8.65062 4.5413 8.58142C4.42712 8.53991 4.41674 8.53299 5.25056 9.16614C5.65191 9.47061 6.15704 9.85465 6.37502 10.0242C6.59299 10.1903 7.04969 10.5362 7.38875 10.7923C7.72436 11.0448 8.00114 11.2663 8.00114 11.2801C8.00114 11.2939 7.93887 11.3666 7.86621 11.4393C7.66208 11.6399 7.57558 11.8648 7.59288 12.1693C7.60326 12.3769 7.62402 12.4495 7.71398 12.5983C7.79009 12.7194 7.81431 12.7817 7.78317 12.7921C7.76241 12.8024 7.11196 13.0204 6.34042 13.2764L4.93918 13.7435L5.31976 13.7262C5.53081 13.7158 6.07401 13.6916 6.53071 13.6743C6.98741 13.657 7.50984 13.6328 7.69322 13.619L8.02882 13.6017L8.05304 13.7677C8.08072 13.9615 8.14646 14.1033 8.27101 14.2348L8.35751 14.3282L8.23641 14.477C8.0911 14.65 7.43027 15.3869 6.96665 15.8852L6.64488 16.2346L6.91821 16.117C7.07044 16.0512 7.30225 15.9544 7.43373 15.8955C7.5652 15.8402 7.97692 15.6637 8.34713 15.508C8.71733 15.3523 9.10483 15.1863 9.20517 15.1448C9.30205 15.0998 9.38508 15.0721 9.38508 15.0859C9.38508 15.1136 8.61008 16.629 8.34021 17.1342L8.1603 17.4629L8.33329 17.3106C8.4267 17.2241 8.74847 16.9197 9.04948 16.629L9.59267 16.0997L9.75183 16.2C9.96634 16.3349 10.2224 16.3903 10.423 16.3419C10.5061 16.3246 10.5787 16.3107 10.5822 16.3142C10.5856 16.3176 10.5683 16.5771 10.5407 16.892C10.468 17.7293 10.4646 17.7258 10.7483 17.2276C10.8797 16.9958 11.0423 16.7155 11.1081 16.6048L11.2257 16.4007L11.3537 16.5252C11.5129 16.6809 11.6893 16.7536 11.9073 16.7536H12.0768L12.1322 17.0027C12.1633 17.1411 12.2325 17.4559 12.2844 17.7016L12.3813 18.1479L12.62 17.0684C12.8415 16.072 12.8934 15.8817 12.921 15.9232C12.928 15.9336 13.0075 16.0893 13.101 16.2692C13.2739 16.6013 14.0766 18.0579 14.1977 18.2552C14.2773 18.3866 14.2773 18.352 14.2116 17.9092C14.1285 17.3591 13.9901 16.2173 14.004 16.2069C14.0109 16.2 14.0732 16.2138 14.1458 16.2346C14.4157 16.3246 14.8067 16.2173 15.0489 15.9855C15.163 15.8748 15.2876 15.6291 15.3118 15.4561C15.3187 15.3973 15.3395 15.3558 15.3568 15.3593C15.3741 15.3627 15.8619 15.5911 16.4432 15.8644C17.0244 16.1377 17.5711 16.3938 17.661 16.4353C17.8202 16.5045 17.8133 16.4941 17.059 15.5669C16.6369 15.0479 16.239 14.5566 16.1698 14.4735C16.0833 14.3628 16.0626 14.3144 16.0937 14.304C16.1941 14.2694 16.4086 14.0411 16.4812 13.8888C16.5816 13.6847 16.5885 13.3318 16.4985 13.1623C16.4639 13.0965 16.4432 13.0412 16.4501 13.0377C16.457 13.0342 17.021 12.9547 17.706 12.8647C19.5224 12.626 19.7958 12.5845 19.6954 12.5602C19.647 12.5499 18.9204 12.4253 18.0797 12.2904C17.2355 12.152 16.547 12.0274 16.547 12.0171C16.547 12.0032 16.9794 11.7368 17.5088 11.422C18.7716 10.6643 20.0137 9.89963 19.9999 9.88233C19.993 9.87541 19.7612 9.93422 19.4878 10.0103C19.211 10.0865 18.5052 10.2802 17.9136 10.4428C17.3254 10.602 16.8168 10.7438 16.7892 10.7507C16.7476 10.7646 16.7234 10.7231 16.6923 10.5639C16.6369 10.3079 16.4916 10.1038 16.2702 9.9792C16.1768 9.92731 16.0972 9.87887 16.0972 9.86849C16.0972 9.85119 16.3774 9.4879 17.3081 8.29426C18.0728 7.31512 18.263 7.06947 18.5606 6.68197C18.7267 6.464 18.9585 6.16299 19.0796 6.01076L19.2975 5.73397L17.0556 7.42238C15.8204 8.35307 14.7894 9.12116 14.7617 9.13154C14.7271 9.14192 14.7132 9.12462 14.7132 9.06926C14.7132 8.93433 14.5749 8.69906 14.4157 8.55721C14.0317 8.2216 13.4746 8.22852 13.1148 8.57796C13.0421 8.64716 12.9764 8.69906 12.9695 8.68868C12.9487 8.67138 12.5266 6.03844 12.3917 5.0939C12.3502 4.80673 12.2914 4.64412 12.2914 4.81711ZM12.4955 9.6609C12.5751 10.1453 12.6512 10.5916 12.665 10.6504L12.6892 10.7577L12.9487 10.4532C13.0906 10.2837 13.2186 10.1453 13.2359 10.1453C13.2497 10.1453 13.2601 10.3252 13.2601 10.5432V10.941L13.5404 10.7058C13.6961 10.5778 14.0663 10.2664 14.3603 10.0173C14.6544 9.76469 14.9035 9.56402 14.9105 9.57094C14.9278 9.58478 14.4607 10.3459 14.042 10.9895C13.7964 11.3666 13.7756 11.4081 13.8171 11.4808C13.8414 11.5258 13.8829 11.5638 13.914 11.5638C13.9452 11.5604 14.2116 11.5085 14.5057 11.4427C14.7997 11.3804 15.0454 11.332 15.0523 11.3389C15.0662 11.3493 14.817 11.5846 14.4261 11.9306C14.2081 12.1278 14.17 12.1727 14.2185 12.1935C14.2531 12.2073 14.7029 12.2835 15.2149 12.3596C16.2529 12.5153 16.3221 12.5291 16.2944 12.5568C16.284 12.5672 15.9277 12.626 15.5021 12.6917C15.0765 12.754 14.6095 12.8232 14.4607 12.8474L14.1943 12.8855L14.3223 13.0031C14.3949 13.0654 14.4641 13.1173 14.4814 13.1207C14.4953 13.1207 14.5057 13.1346 14.5057 13.1553C14.5057 13.1726 14.4122 13.1899 14.2946 13.1969L14.0836 13.2072L14.8516 13.913C15.2703 14.3006 15.6093 14.6223 15.599 14.6327C15.592 14.6431 15.1665 14.4562 14.6544 14.2175C14.1458 13.9822 13.7237 13.792 13.7203 13.7954C13.7134 13.7989 13.7583 13.9373 13.8137 14.1068C13.869 14.2763 13.9106 14.4182 13.9036 14.4251C13.8967 14.4355 13.7514 14.3628 13.5853 14.266C13.4193 14.1691 13.2774 14.0964 13.2739 14.0999C13.267 14.1033 13.2878 14.2141 13.3155 14.3421C13.4123 14.8161 13.6372 16.0755 13.6269 16.0858C13.6096 16.1031 13.5404 15.989 13.0871 15.1621C12.8691 14.7711 12.6754 14.4251 12.6546 14.3905C12.6166 14.3386 12.5924 14.3801 12.4816 14.695C12.409 14.8956 12.3433 15.0583 12.3294 15.0583C12.319 15.0583 12.2568 14.906 12.191 14.7192C12.1253 14.5358 12.063 14.3697 12.0492 14.3559C12.0249 14.3282 11.6893 14.9164 11.2153 15.809C11.0769 16.072 10.9801 16.1827 11.025 16.0339C11.0458 15.9682 11.3572 14.1691 11.3572 14.1241C11.3572 14.1068 11.2257 14.1725 11.0631 14.2694C10.9005 14.3663 10.7621 14.4389 10.7517 14.432C10.7448 14.4216 10.7759 14.2867 10.8244 14.1276C10.8728 13.9719 10.9074 13.8335 10.897 13.8231C10.8867 13.8162 10.6548 13.913 10.3815 14.0411C9.50964 14.4493 9.0737 14.6396 9.0737 14.6119C9.0737 14.5946 9.23285 14.4389 9.4266 14.259C10.1047 13.6328 10.5095 13.2488 10.5199 13.2211C10.5268 13.2038 10.4473 13.1899 10.34 13.1899C10.2327 13.1899 10.1462 13.1761 10.1462 13.1588C10.1462 13.1415 10.212 13.0758 10.2881 13.0135C10.43 12.9028 10.4334 12.8993 10.3504 12.8751C10.3054 12.8578 9.85562 12.7921 9.35048 12.7229C8.4267 12.5983 8.32291 12.5775 8.35405 12.5499C8.36097 12.5429 8.84189 12.4565 9.41968 12.3596C9.99402 12.2662 10.4715 12.1831 10.4784 12.1762C10.4819 12.1727 10.2881 11.9894 10.0425 11.7714C9.7968 11.5534 9.59267 11.3597 9.59267 11.3458C9.59267 11.3285 9.60305 11.3251 9.62035 11.3355C9.65149 11.3528 10.6445 11.5292 10.7275 11.5292C10.7586 11.5292 10.8071 11.4981 10.8278 11.46C10.8659 11.4012 10.8382 11.3389 10.5856 10.9514C10.2016 10.3632 9.73107 9.60554 9.73107 9.5744C9.73107 9.56056 9.80372 9.61246 9.89714 9.68858C9.9871 9.76469 10.3573 10.0761 10.7171 10.3805L11.3745 10.9307L11.3849 10.5362C11.3883 10.3183 11.4056 10.1453 11.4229 10.1522C11.4368 10.1591 11.5579 10.2871 11.6859 10.4394C11.8139 10.5916 11.9281 10.7196 11.9419 10.7265C11.9557 10.73 12.0249 10.3736 12.0976 9.93076C12.2948 8.73366 12.2983 8.71982 12.326 8.75096C12.3398 8.7648 12.4159 9.17652 12.4955 9.6609Z" fill="white"/>
<path d="M11.9281 11.3355C11.7239 11.3977 11.6409 11.4496 11.4506 11.6295C10.6998 12.3319 11.1012 13.6086 12.1287 13.7781C12.5543 13.8473 12.9591 13.7054 13.2532 13.3837C13.5023 13.1069 13.5819 12.882 13.5646 12.4807C13.5507 12.1554 13.485 11.9651 13.3189 11.7645L13.2428 11.6676L12.966 12.0343C12.7446 12.3319 12.6927 12.4218 12.7031 12.5049C12.7273 12.7367 12.5543 12.9131 12.3087 12.9131C12.1391 12.9131 11.9454 12.7298 11.9454 12.5706C11.9454 12.3284 12.1703 12.1208 12.3778 12.1727C12.4436 12.19 12.5301 12.1416 12.8276 11.9063L13.1978 11.6192L13.094 11.5257C12.8553 11.3112 12.2914 11.2213 11.9281 11.3355Z" fill="white"/>
<path d="M14.8793 6.15954C14.824 6.19068 14.7617 6.26333 14.734 6.32215C14.689 6.41903 14.5195 7.60921 14.5472 7.63689C14.5645 7.65419 15.4329 6.95184 15.5367 6.83767C15.6301 6.73387 15.6405 6.49514 15.5609 6.33599C15.4467 6.11802 15.0938 6.0246 14.8793 6.15954Z" fill="white"/>
<path d="M6.47881 7.6092C6.32312 7.69224 6.20202 7.87215 6.20202 8.0313C6.20202 8.19045 6.31274 8.37037 6.43729 8.4188C6.57223 8.4707 7.58942 8.73365 7.60326 8.71981C7.62402 8.69905 7.03585 7.73721 6.95281 7.6611C6.83517 7.55038 6.6345 7.52962 6.47881 7.6092Z" fill="white"/>
<path d="M19.3148 8.26659C19.2664 8.29773 18.9654 8.5503 18.6402 8.83055C18.3184 9.10733 18.0312 9.35298 18.0001 9.37374C17.9344 9.4291 18.2907 9.308 19.083 9.01392C19.6262 8.81325 19.7058 8.77519 19.7508 8.68177C19.8304 8.52954 19.7888 8.36001 19.6505 8.27697C19.5155 8.19393 19.4256 8.19047 19.3148 8.26659Z" fill="white"/>
<path d="M4.21261 10.8684C4.01886 10.948 3.94274 11.1901 4.04654 11.3908C4.08114 11.4565 4.14687 11.5292 4.19531 11.55C4.27489 11.588 5.03951 11.6399 6.11553 11.6849L6.56531 11.7057L5.49275 11.2697C4.90458 11.0344 4.38906 10.8372 4.35101 10.8407C4.31295 10.8407 4.25067 10.8545 4.21261 10.8684Z" fill="white"/>
<path d="M6.46151 14.4736C6.01173 14.5843 5.8941 14.6293 5.83182 14.6985C5.72456 14.8161 5.72802 14.9891 5.83182 15.086C5.98059 15.2243 6.08439 15.1897 6.47881 14.8714C6.97703 14.4736 7.12926 14.3352 7.06698 14.3386C7.03931 14.3386 6.76598 14.4009 6.46151 14.4736Z" fill="white"/>
<path d="M15.1976 16.6048C15.2011 16.7225 15.3395 17.4905 15.3672 17.5459C15.426 17.6532 15.5471 17.7224 15.682 17.7224C16.0591 17.7224 16.2702 17.2518 15.9968 17.02C15.8758 16.9197 15.1976 16.5668 15.1976 16.6048Z" fill="white"/>
<path d="M11.1704 17.8988C11.1358 18.0026 11.0285 18.2759 10.9386 18.5112C10.7656 18.9471 10.7413 19.0613 10.8071 19.1789C10.897 19.3519 11.2257 19.3139 11.2742 19.1236C11.288 19.0717 11.2845 18.7326 11.2672 18.3693L11.2361 17.7085L11.1704 17.8988Z" fill="white"/>
</svg>
