<svg width="24" height="24" viewBox="0 0 24 24" fill="none" xmlns="http://www.w3.org/2000/svg">
<rect width="24" height="24" rx="12" fill="#1D1C22"/>
<path d="M11.8954 5.80247C11.8583 5.82368 11.5666 6.04637 11.2459 6.30087C10.9251 6.55537 10.3472 7.01134 9.96013 7.31091C9.57308 7.61313 9.10915 7.97897 8.92623 8.12212C8.26347 8.64172 6.70732 9.8665 6.44222 10.0706C6.16386 10.2854 6.11084 10.3622 6.1347 10.4974C6.14265 10.5346 6.17976 10.5902 6.21688 10.6194C6.2805 10.6724 6.34413 10.6724 12.0014 10.6724C17.664 10.6724 17.7223 10.6724 17.7886 10.6194C17.8681 10.5558 17.8946 10.4603 17.8628 10.3728C17.8363 10.3066 17.4758 10.0123 16.1238 8.94924C15.7447 8.65233 15.2383 8.25202 14.9971 8.06115C14.7558 7.87027 14.3343 7.53625 14.056 7.31886C13.7803 7.10148 13.2394 6.67466 12.8577 6.37244C12.0703 5.7468 12.0385 5.72825 11.8954 5.80247Z" fill="white"/>
<path d="M7.03337 11.314C7.02542 11.4068 7.01216 11.7143 7.00421 11.9979C6.99626 12.2816 6.95384 13.3977 6.91142 14.4767C6.86636 15.5556 6.83189 16.5312 6.83189 16.6452V16.8493H7.7518L8.66905 16.8467L8.65315 16.457C8.59748 15.2428 8.44902 11.3962 8.44902 11.2371V11.1496H7.74915H7.04928L7.03337 11.314Z" fill="white"/>
<path d="M15.5432 11.367C15.5352 11.4889 15.5087 12.1358 15.4875 12.8065C15.4636 13.4772 15.4239 14.5906 15.3947 15.2799C15.3655 15.9692 15.3417 16.6028 15.3417 16.6903V16.8493L16.2563 16.8467H17.1709V16.6664C17.1709 16.5657 17.1417 15.7757 17.1046 14.9114C17.0702 14.0445 17.033 13.1564 17.0251 12.9391C17.0171 12.719 17.0065 12.4274 16.9986 12.2896C16.9933 12.1517 16.98 11.8389 16.9694 11.5923L16.9535 11.1496H16.2563H15.5591L15.5432 11.367Z" fill="white"/>
<path d="M12.0686 11.8644C11.7922 12.136 11.5788 12.3882 11.5885 12.4221C11.6031 12.4512 11.5885 12.4706 11.5546 12.456C11.5206 12.4463 11.2782 12.6549 11.0115 12.9216L10.5265 13.4113L10.7933 13.649C10.9387 13.7799 11.0891 13.8914 11.123 13.8914C11.2248 13.8914 11.2442 13.7459 11.1569 13.649C11.0842 13.5714 11.0842 13.5423 11.1327 13.4792C11.2103 13.3871 11.2733 13.3871 11.3849 13.4841C11.4528 13.552 11.4818 13.552 11.5449 13.5035C11.637 13.4259 11.637 13.3822 11.54 13.2901C11.4964 13.2416 11.477 13.1737 11.4964 13.1155C11.5352 12.9992 11.6322 12.9895 11.7146 13.0913C11.7922 13.1834 11.8795 13.1834 11.9571 13.0913C12.0056 13.0283 12.0056 12.9992 11.9377 12.9313C11.8407 12.8197 11.8407 12.7567 11.9328 12.6791C11.9959 12.6306 12.025 12.6306 12.0929 12.6985C12.2044 12.7955 12.2674 12.7955 12.345 12.7034C12.3935 12.6403 12.3935 12.6112 12.3256 12.5433C12.2286 12.4318 12.2286 12.3688 12.3208 12.2912C12.3838 12.2378 12.4178 12.2475 12.5099 12.3348C12.6166 12.4366 12.6214 12.4366 12.7039 12.3445C12.7863 12.2524 12.7863 12.2475 12.6845 12.1457L12.5778 12.039L12.6796 11.9372L12.7814 11.8353L12.893 11.942L13.0094 12.0487L13.0966 11.9517C13.1694 11.8741 13.1742 11.8402 13.1257 11.7917C13.0966 11.7626 13.0433 11.7335 13.0094 11.7335C12.9754 11.7287 12.956 11.7044 12.9609 11.6753C12.9754 11.6123 12.7039 11.3698 12.6263 11.3698C12.5972 11.3698 12.345 11.5929 12.0686 11.8644Z" fill="white"/>
<path d="M13.0577 12.6112L12.9219 12.6839L13.1304 12.8731C13.2468 12.9797 13.3535 13.0622 13.368 13.067C13.3874 13.067 13.4262 13.004 13.4601 12.9264C13.5183 12.7809 13.465 12.5821 13.3632 12.5821C13.3438 12.5821 13.2953 12.5724 13.2565 12.5579C13.2225 12.5482 13.1304 12.5724 13.0577 12.6112Z" fill="white"/>
<path d="M11.9618 13.6441L11.1665 14.4054L11.375 14.5849L11.5835 14.7594L12.34 14.0272C12.7571 13.6247 13.1014 13.2804 13.1111 13.2659C13.1159 13.2465 13.0383 13.1543 12.9413 13.0573L12.7571 12.8779L11.9618 13.6441Z" fill="white"/>
<path d="M4.93378 13.6654C4.48841 13.9543 4.26042 14.413 4.332 14.8636L4.35851 15.028L4.24186 15.1977C3.89193 15.6961 3.92374 16.3032 4.32404 16.7591C4.44599 16.897 4.72435 17.064 4.89136 17.1011L4.9762 17.1197V17.5412C4.9762 17.8593 4.96824 17.9627 4.94438 17.9653C4.92583 17.968 4.74556 17.9706 4.54408 17.9733C4.2127 17.976 4.17293 17.9813 4.13847 18.029C4.09075 18.0926 4.09075 18.135 4.14377 18.1854C4.18089 18.2251 4.93113 18.2278 11.9988 18.2278C18.0405 18.2278 19.8193 18.2198 19.8431 18.196C19.8935 18.1456 19.8829 18.021 19.8219 17.9892C19.7901 17.9706 19.6231 17.9627 19.4031 17.9653L19.0399 17.968L19.0319 17.5438L19.0266 17.1197L19.1645 17.0773C19.7079 16.9208 20.0844 16.3058 19.9837 15.7411C19.9465 15.5317 19.8405 15.2878 19.7292 15.1579C19.6549 15.0704 19.6549 15.0598 19.6523 14.7337C19.6496 14.4077 19.647 14.3918 19.5595 14.2115C19.4561 14.0021 19.2202 13.7476 19.0213 13.6309L18.8967 13.5593L18.7456 13.6548C18.5229 13.7979 18.3533 13.9862 18.2393 14.2168C18.1385 14.4183 18.1385 14.4236 18.1385 14.7417V15.0651L18.0378 15.2083C17.8893 15.423 17.8284 15.6059 17.8151 15.8816C17.8045 16.0805 17.8098 16.1494 17.8602 16.2925C17.9927 16.6876 18.2658 16.958 18.6634 17.0852L18.7615 17.1197L18.7562 17.5465L18.7483 17.976H18.3109H17.8734L17.8708 17.7506C17.8708 17.626 17.8628 17.4935 17.8522 17.4537C17.8098 17.2893 18.226 17.2999 11.9802 17.2999C6.41305 17.2999 6.2805 17.2999 6.21953 17.3503C6.1612 17.3954 6.1559 17.4272 6.14265 17.6896L6.12939 17.976H5.69197H5.25455L5.2466 17.5465L5.2413 17.1197L5.37385 17.0746C5.82187 16.9261 6.1506 16.4967 6.18771 16.0115C6.21157 15.7093 6.10818 15.3859 5.90936 15.1367C5.83248 15.0386 5.82983 15.028 5.85368 14.9008C5.88815 14.7311 5.86429 14.4713 5.79801 14.2963C5.69993 14.0418 5.42157 13.7343 5.17237 13.6071C5.09019 13.5646 5.08489 13.5646 4.93378 13.6654Z" fill="white"/>
<path d="M10.9726 14.8662L10.8951 15.065L11.026 15.0311C11.0987 15.0117 11.1715 14.9777 11.186 14.9486C11.2054 14.9195 11.2491 14.9147 11.283 14.9389C11.3412 14.9729 11.3412 14.9632 11.283 14.8953C11.2491 14.8516 11.2006 14.8225 11.1812 14.8371C11.1569 14.8516 11.123 14.8371 11.1036 14.808C11.0793 14.7692 11.089 14.7643 11.1327 14.7886C11.1715 14.8128 11.186 14.8031 11.1715 14.7643C11.1278 14.6286 11.0502 14.6722 10.9726 14.8662Z" fill="white"/>
<path d="M9.11181 15.8949V16.0275H12.0014H14.891V15.8949V15.7624H12.0014H9.11181V15.8949Z" fill="white"/>
</svg>
