<svg width="374" height="373" viewBox="0 0 374 373" fill="none" xmlns="http://www.w3.org/2000/svg">
<path d="M346.118 37.6423C347.351 44.7618 352.843 50.3858 359.931 51.7878C368.107 53.4051 374 60.5772 374 68.9122V331.33C374 354.256 355.415 372.842 332.488 372.842H41.5116C18.5854 372.842 0 354.256 0 331.33V21.7442C0 9.7352 9.7352 1.07104e-05 21.7442 1.07104e-05H106.7H112.09C120.863 1.07104e-05 128.994 4.60025 133.512 12.1203C137.692 19.0792 145.216 23.3361 153.334 23.3361H221.055C228.866 23.3361 236.038 19.0212 239.698 12.1203C243.652 4.66288 251.403 1.07104e-05 259.844 1.07104e-05H267.3L321.081 2.74317e-06C331.783 1.1578e-06 340.932 7.70089 342.759 18.2456L346.118 37.6423Z" fill="#F34F22"/>
</svg>
