<svg width="28" height="14" viewBox="0 0 28 14" fill="none" xmlns="http://www.w3.org/2000/svg">
<path d="M7.69204 1.73831H7.73549C8.3439 1.73831 8.64811 2.27429 8.64811 3.34625C9.02474 5.01214 9.21306 6.33036 9.21306 7.30092H9.25652L9.21306 7.34437V7.56166C9.21306 8.59016 8.764 9.72007 7.86587 10.9514C6.99671 11.9654 6.04064 12.4724 4.99765 12.4724C3.38971 12.4724 1.79626 11.5598 0.217289 9.73455L0 9.12614C0.115888 8.63362 0.275233 8.38736 0.478036 8.38736L0.869157 8.3439C1.19509 8.41633 1.76004 8.83643 2.56401 9.60418C3.31004 10.2343 4.04882 10.582 4.78036 10.6472H5.21494C5.94648 10.6472 6.62732 9.90839 7.25746 8.43082L7.43129 7.43129H7.34437C6.54765 8.38736 5.59157 8.8654 4.47616 8.8654C3.57079 8.8654 2.71611 8.41633 1.91214 7.51821C1.42687 6.77942 0.890886 5.53363 0.304205 3.78083C0.449064 3.17242 0.753269 2.86822 1.21682 2.86822H1.30374C1.84696 2.86822 2.23808 3.46214 2.4771 4.64999C3.02032 6.24344 3.64321 7.04017 4.34578 7.04017H4.82382C5.67125 7.04017 6.3376 6.09858 6.82288 4.21541L6.86634 3.69392L6.73596 2.7813C6.88807 2.08598 7.20676 1.73831 7.69204 1.73831Z" fill="black"/>
<path d="M15.634 0C16.1482 0 16.4379 0.333177 16.5031 0.99953V1.08645L15.9382 4.34578L15.547 8.08316H15.6774L17.5461 7.77895C18.0459 7.77895 18.3356 8.08316 18.4153 8.69157C18.4153 9.26376 17.8648 9.59694 16.7639 9.6911L15.2428 9.9953L14.8517 12.0813C14.6562 12.342 14.4099 12.4724 14.1129 12.4724C13.5335 12.4724 13.2438 12.0523 13.2438 11.2121L13.3741 10.1691C10.9985 10.1691 9.27463 10.3285 8.20267 10.6472H8.07229C7.64496 10.6472 7.36972 10.3575 7.24659 9.77801V9.73455C7.24659 9.27825 8.04332 8.40909 9.63677 7.12708C11.3461 5.29461 12.4905 3.8605 13.0699 2.82476C14.0043 1.40514 14.6851 0.507008 15.1125 0.130373L15.634 0ZM10.8536 8.38736L10.8971 8.43082H11.3751C12.9396 8.43082 13.7218 8.35839 13.7218 8.21353L14.1564 4.51961H14.1129L12.027 7.17054L10.8536 8.38736Z" fill="black"/>
<path d="M26.053 1.58621H26.1399C26.8642 1.66588 27.2263 1.97009 27.2263 2.49883C27.2263 2.95513 26.7918 3.38971 25.9226 3.80256C25.278 4.70793 24.684 5.89578 24.1408 7.3661L24.1843 7.40956H24.3147L25.9661 7.3661C26.4006 7.3661 26.6614 7.68479 26.7483 8.32218C26.7483 8.87264 26.1833 9.14787 25.0534 9.14787L23.3586 9.19133C23.0182 9.82147 22.4387 11.1252 21.6203 13.1025C21.3885 13.3343 21.1567 13.4502 20.9249 13.4502C20.3165 13.3053 20.0123 13.0011 20.0123 12.5376C20.1572 12.0088 20.5918 10.9224 21.3161 9.27825V9.19133H20.2296C19.7226 9.19133 19.3749 8.97404 19.1866 8.53946L19.1432 8.32218C19.1432 7.79344 19.5053 7.48923 20.2296 7.40956H22.0983L23.6628 4.01985L23.6193 3.97639H23.2282C22.714 3.97639 21.3813 3.84602 19.2301 3.58527L19.1866 3.62873L19.4474 5.23667C19.4474 5.67125 19.1432 5.96097 18.5348 6.10583C17.9408 6.10583 17.5932 5.49742 17.4918 4.2806C17.4918 4.04158 17.3614 3.47663 17.1007 2.58574C17.1007 2.08598 17.4483 1.78177 18.1436 1.67313L23.1413 2.19462H24.0974C24.8579 2.19462 25.3359 2.06425 25.5315 1.8035C25.6546 1.65864 25.8284 1.58621 26.053 1.58621Z" fill="black"/>
</svg>
