<svg width="151" height="196" viewBox="0 0 151 196" fill="none" xmlns="http://www.w3.org/2000/svg">
<path d="M0 21.589C0 9.66576 9.66573 0 21.589 0H35.2847C42.0435 0 47.5226 5.47909 47.5226 12.2379C47.5226 19.5532 53.4296 25.4958 60.7448 25.5397L133.018 25.9737C142.531 25.9737 150.242 33.6852 150.242 43.1977V150.166C150.242 155.7 147.246 160.801 142.412 163.496L142.104 163.667C135.13 167.556 130.807 174.916 130.807 182.901C130.807 190.124 124.919 195.963 117.696 195.902L21.4065 195.087C9.55483 194.987 0 185.351 0 173.499V21.589Z" fill="#FEFCFF"/>
</svg>
