<svg width="32" height="32" viewBox="0 0 32 32" fill="none" xmlns="http://www.w3.org/2000/svg">
<path d="M14.5477 6.31738C13.2086 7.08069 12.4551 8.3262 12.455 9.37207C12.455 11.0489 13.4672 10.8508 13.7675 10.6035V20.3096C13.8182 20.4314 13.8843 20.546 13.9638 20.6514C14.0979 20.8368 14.275 20.9877 14.4794 21.0908C14.6837 21.1938 14.9098 21.2464 15.1386 21.2441C16.1496 21.2439 17.4596 20.0948 17.4686 20.0869V12.2275C17.4686 11.4279 16.866 10.4615 16.2626 10.1318C16.2626 10.1318 17.3796 9.93538 18.2431 10.5938C18.4049 10.3955 18.5769 10.2055 18.7587 10.0254C20.7659 8.05353 22.6606 7.4945 24.2382 7.21387C24.2014 7.24293 21.3672 9.48991 21.3671 12.4922C21.3671 14.7305 21.4241 20.1717 21.4247 20.2275C22.4932 21.2538 24.0762 19.7725 25.5067 18.3008C25.231 19.6313 24.0027 23.044 20.0907 24.8926L18.5214 23.126L15.872 25.791C14.3636 25.7707 12.8802 25.4023 11.538 24.7139C10.1958 24.0254 9.03112 23.0355 8.13466 21.8223C8.41647 21.9099 8.70745 21.9648 9.00185 21.9854C9.43546 21.9932 9.90503 21.8342 9.90517 21.1025V13.915C9.91165 13.7301 9.87522 13.546 9.79775 13.3779C9.72029 13.21 9.60459 13.0624 9.45986 12.9473C9.31503 12.8321 9.14493 12.7525 8.96377 12.7148C8.78257 12.6772 8.59464 12.6825 8.41591 12.7305C7.19851 13.0093 6.22308 16.0291 6.20888 16.0732C6.19531 14.6594 6.4891 13.2593 7.07119 11.9707C7.65336 10.682 8.50994 9.53583 9.57998 8.61133C11.4069 7.06304 13.1918 6.52735 14.5477 6.31738Z" fill="white"/>
<path fill-rule="evenodd" clip-rule="evenodd" d="M15.9989 9.41207e-08C18.1 -0.000227937 20.1807 0.413892 22.122 1.21777C24.0632 2.02168 25.8276 3.19993 27.3134 4.68555C28.799 6.17109 29.977 7.93499 30.7811 9.87598C31.5853 11.8172 31.9999 13.8979 31.9999 15.999C32.0001 19.1635 31.0616 22.2574 29.3036 24.8887C27.5457 27.5198 25.0473 29.5711 22.1239 30.7822C19.2004 31.9934 15.9825 32.3105 12.8788 31.6934C9.77518 31.0762 6.92413 29.5519 4.68642 27.3145C2.44873 25.077 0.925055 22.2257 0.307516 19.1221C-0.309932 16.0185 0.00690091 12.8015 1.21767 9.87793C2.42845 6.9545 4.47846 4.45546 7.10927 2.69727C9.74035 0.939002 12.8344 0.000194158 15.9989 9.41207e-08ZM21.8759 1.80762C19.0692 0.645096 15.9804 0.340902 13.0009 0.933594C10.0213 1.52635 7.28377 2.98944 5.13564 5.1377C2.98755 7.28592 1.52511 10.0233 0.932516 13.0029C0.339958 15.9825 0.643859 19.0713 1.80654 21.8779C2.96927 24.6846 4.93863 27.0838 7.46474 28.7715C9.99082 30.4591 12.961 31.3596 15.9989 31.3594C20.0724 31.3591 23.9789 29.7408 26.8593 26.8604C29.7397 23.9798 31.3583 20.0727 31.3583 15.999C31.3583 12.961 30.4573 9.99082 28.7694 7.46484C27.0816 4.93899 24.6825 2.97014 21.8759 1.80762Z" fill="white"/>
</svg>
