<svg width="32" height="32" viewBox="0 0 32 32" fill="none" xmlns="http://www.w3.org/2000/svg">
<path d="M22.7736 13.8936C23.5602 13.8664 24.2675 14.3866 24.5075 15.1523C24.5607 15.3163 24.5875 15.4806 24.5875 15.6582V15.7949C24.4944 15.8631 24.3873 15.8906 24.2809 15.9043C24.1209 15.918 23.8666 15.918 23.5201 15.918H20.7075C20.7475 15.5762 20.8408 15.2481 21.0007 14.9336C21.3474 14.25 22.0404 13.8526 22.7736 13.8936Z" fill="white"/>
<path d="M10.3471 10.7217C10.4404 11.0498 10.5337 11.4053 10.6403 11.7881C10.747 12.1846 10.8669 12.5811 11.0002 13.0049C11.1336 13.4288 11.2535 13.8398 11.3868 14.2637C11.5068 14.6738 11.6268 15.0703 11.7467 15.4395C11.8667 15.7949 11.9733 16.1367 12.0533 16.4238H8.66746C8.8674 15.8496 9.0807 15.2069 9.25399 14.5098C9.4673 13.8261 9.66719 13.1417 9.86717 12.4854C10.0538 11.8975 10.2004 11.3095 10.3204 10.7217H10.3471Z" fill="white"/>
<path fill-rule="evenodd" clip-rule="evenodd" d="M26.3337 0C29.4668 0.00012974 31.9998 2.59813 32 5.81152V26.1885C31.9998 29.4019 29.4668 31.9999 26.3337 32H5.66627C2.53326 31.9998 0.000231783 29.4018 0 26.1885V5.81152C0.000232611 2.5982 2.53326 0.000238576 5.66627 0H26.3337ZM22.8669 11.5283C22.0139 11.5283 21.2673 11.6378 20.6408 11.9521C20.0142 12.2666 19.4669 12.7041 19.0269 13.251C18.5736 13.8116 18.2405 14.4413 18.0271 15.125C17.8006 15.8359 17.6939 16.5606 17.6939 17.2988C17.6939 17.9826 17.7871 18.6532 17.9738 19.2959C18.1605 19.9521 18.4671 20.5537 18.8936 21.0869C19.3469 21.6475 19.9209 22.0996 20.5741 22.3867C21.2673 22.701 22.1207 22.8652 23.1335 22.8652C23.7734 22.8789 24.4008 22.8242 25.0274 22.7012C25.4938 22.6191 25.9339 22.4823 26.3604 22.291C26.4003 22.2637 26.4271 22.2353 26.4537 22.1943C26.467 22.1398 26.4804 22.0848 26.4804 22.0303V19.9385C26.4803 19.8019 26.4402 19.7747 26.3737 19.8291C26.0006 19.9794 25.6004 20.0888 25.1873 20.1436C24.7341 20.2393 24.2666 20.2803 23.8 20.2939C23.2136 20.3076 22.6269 20.1845 22.0938 19.9521C21.6939 19.7881 21.3607 19.5009 21.1207 19.1318C20.894 18.7626 20.7608 18.338 20.7075 17.9141H24.9341C25.2805 17.9141 25.6007 17.9688 25.9072 17.9688C26.2136 17.9687 26.4671 17.9551 26.6803 17.9277C26.8932 17.9141 27.0402 17.9004 27.1202 17.9004C27.2134 17.9002 27.2935 17.8183 27.3068 17.7227C27.3201 17.5996 27.3335 17.408 27.3602 17.1484C27.3735 16.8887 27.3868 16.6015 27.3868 16.2734C27.3868 15.7129 27.3068 15.1524 27.1335 14.6055C26.9602 14.0312 26.6804 13.5108 26.3337 13.0459C25.9605 12.5675 25.4805 12.1983 24.9341 11.9521C24.2808 11.6513 23.5735 11.5147 22.8669 11.5283ZM8.58748 8.23242C8.52085 8.24609 8.46664 8.31448 8.47989 8.38281C8.47989 8.68357 8.4532 8.98439 8.3999 9.27148C8.34662 9.43545 8.30657 9.5587 8.2666 9.69531L3.97334 22.3184C3.93358 22.482 3.97375 22.5643 4.11997 22.5645H6.67079C6.77188 22.5563 6.85679 22.4805 6.88027 22.373L7.89336 19.1455H12.8541V19.0771L13.9472 22.3594C13.974 22.4548 14.0673 22.5234 14.1604 22.5098H16.9474C17.0801 22.5095 17.1204 22.4408 17.0807 22.291L12.2133 8.3418C12.1999 8.27356 12.1331 8.23251 12.04 8.23242H8.58748Z" fill="white"/>
</svg>
