<svg width="32" height="32" viewBox="0 0 32 32" fill="none" xmlns="http://www.w3.org/2000/svg">
<path fill-rule="evenodd" clip-rule="evenodd" d="M32 16C32 24.8364 24.8364 32 16 32C7.16364 32 0 24.8364 0 16C0 7.16364 7.16364 0 16 0C19.8095 0 22.0945 0.762182 22.0945 3.04727C22.0945 5.14764 18.6211 6.32145 14.8655 7.59127C11.8095 8.624 8.56727 9.71927 6.85673 11.4284C3.04727 15.2393 3.80945 21.3338 7.61891 25.1433C11.4298 28.9527 16.7622 28.9527 20.5716 25.1433C22.2531 23.4604 23.0444 20.2924 23.7964 17.28C24.7476 13.4691 25.6378 9.90545 28.1905 9.90545C31.2684 9.90545 32 13.8647 32 16ZM23.504 2.39709C26.3083 3.60599 28.5275 5.86535 29.6858 8.69091C29.2043 8.52815 28.6989 8.44703 28.1905 8.45091C26.2865 8.45091 25.0865 9.69746 24.336 11.04C23.6015 12.3593 23.1113 14.08 22.6865 15.7324C22.5804 16.1469 22.4771 16.5585 22.3753 16.9658C22.0524 18.2604 21.7367 19.5215 21.3469 20.6953C20.8291 22.2473 20.2487 23.4095 19.5433 24.1135C19.3286 24.3286 19.1039 24.5334 18.8698 24.7273C15.8015 24.717 12.8615 23.4952 10.6896 21.3279C8.51761 19.1606 7.28959 16.2232 7.27273 13.1549C7.46167 12.9093 7.66622 12.6761 7.88509 12.4567C8.62836 11.7149 9.83709 11.04 11.4022 10.3913C12.6298 9.88218 13.9578 9.43273 15.3062 8.97746L16.3767 8.61382C18.0276 8.04655 19.712 7.43418 20.9876 6.68218C22.2036 5.96509 23.5491 4.82764 23.5491 3.04727C23.5491 2.82618 23.5345 2.60945 23.504 2.39709Z" fill="white"/>
</svg>
