<svg width="24" height="24" viewBox="0 0 24 24" fill="none" xmlns="http://www.w3.org/2000/svg">
<rect width="24" height="24" rx="12" fill="#1D1C22"/>
<path d="M11.0322 8.45104C10.9333 8.54566 10.9247 8.58867 10.9247 8.94136V9.32845L8.80857 9.34136C6.43008 9.35856 6.5204 9.34566 6.07309 9.68114C5.94836 9.77577 5.84944 9.86179 5.85804 9.87469C5.86664 9.88329 5.96987 9.86179 6.086 9.82738C6.26234 9.77146 7.11395 9.76286 12.0172 9.76286C15.3505 9.76286 17.815 9.78007 17.9139 9.80587C18.0086 9.82738 18.0903 9.83598 18.0989 9.82738C18.129 9.79727 17.6946 9.5048 17.5053 9.43168C17.3333 9.36286 17.0924 9.35426 15.1957 9.34136L13.0752 9.32845V8.94136C13.0752 8.58867 13.0666 8.54566 12.9677 8.45104C12.8645 8.34351 12.8602 8.34351 12 8.34351C11.1398 8.34351 11.1355 8.34351 11.0322 8.45104Z" fill="white"/>
<path d="M6.23216 10.322C5.95259 10.3693 5.72463 10.4983 5.51818 10.722C5.2085 11.0532 5.1956 11.1521 5.21281 12.9543L5.22571 14.5155L5.35474 14.7478C5.42356 14.8725 5.55689 15.0403 5.64721 15.122C5.96979 15.393 5.9913 15.3973 8.21925 15.3973C9.53968 15.3973 10.2709 15.3801 10.3526 15.35C10.5461 15.2768 10.658 15.1478 10.9375 14.6489C11.3375 13.9435 11.5655 13.7457 11.9999 13.7457C12.1805 13.7414 12.2838 13.7715 12.4343 13.8575C12.6494 13.9822 12.7182 14.0768 13.1225 14.7693C13.5182 15.4489 13.3031 15.3973 15.7676 15.3973C18.0171 15.3973 18.03 15.3973 18.3569 15.1134C18.4558 15.0317 18.5848 14.8553 18.6537 14.7177L18.7741 14.4725V12.8596C18.7741 11.3112 18.7698 11.2381 18.6838 11.0489C18.5504 10.765 18.3483 10.5586 18.073 10.4209L17.8278 10.3005L12.1289 10.2962C8.99345 10.2919 6.33969 10.3048 6.23216 10.322ZM9.1956 11.6553C9.49667 11.8145 9.6257 11.9478 9.79775 12.2747C9.89667 12.4639 9.91388 12.5457 9.91388 12.8596C9.91388 13.1951 9.90097 13.2467 9.76764 13.4962C9.6042 13.793 9.44076 13.9478 9.12678 14.1112C8.83861 14.2575 8.24506 14.2618 7.94829 14.1155C7.66872 13.9779 7.41065 13.7112 7.27732 13.4274C7.11818 13.0876 7.11388 12.5844 7.26442 12.3005C7.56549 11.7285 7.9827 11.4747 8.58054 11.4962C8.87302 11.5091 8.96334 11.5306 9.1956 11.6553ZM16.0644 11.6123C16.9117 12.0209 17.1096 13.1607 16.4472 13.8231C16.3526 13.9134 16.159 14.0467 16.0085 14.1155C15.7676 14.2317 15.7031 14.2446 15.4063 14.2274C14.5934 14.1887 14.0128 13.5435 14.0773 12.7478C14.116 12.2231 14.516 11.7069 15.0106 11.5478C15.2945 11.4532 15.802 11.4833 16.0644 11.6123Z" fill="white"/>
<path d="M8.24083 12.064C7.81932 12.2145 7.60427 12.636 7.7204 13.0833C7.84943 13.5822 8.41287 13.8532 8.88169 13.6381C9.44943 13.3844 9.57846 12.6704 9.13115 12.2489C8.88599 12.0123 8.56771 11.9478 8.24083 12.064Z" fill="white"/>
<path d="M15.1784 12.0597C14.7913 12.1973 14.6064 12.4554 14.6064 12.8597C14.6021 13.8532 16.0343 14.0424 16.2838 13.079C16.4558 12.4123 15.8236 11.8274 15.1784 12.0597Z" fill="white"/>
<path d="M4.23648 11.4876C4.00422 11.5564 3.99992 11.5822 3.99992 12.722C3.99992 13.3457 4.01713 13.8016 4.04293 13.8489C4.09885 13.9521 4.34401 14.0209 4.53756 13.9908L4.6881 13.965V12.7048V11.4403L4.52896 11.4446C4.43863 11.4446 4.3096 11.4661 4.23648 11.4876Z" fill="white"/>
<path d="M19.3118 12.7048V13.9779L19.4193 14.0038C19.5741 14.0425 19.8193 13.9865 19.9182 13.8876C19.9956 13.8102 19.9999 13.7371 19.9999 12.7392V11.6683L19.8924 11.5693C19.815 11.4962 19.7204 11.4618 19.5483 11.4489L19.3118 11.4317V12.7048Z" fill="white"/>
</svg>
